<?xml version="1.0" encoding="UTF-8"?>
<svg width="202px" height="82px" viewBox="0 0 202 82" version="1.1" xmlns="http://www.w3.org/2000/svg" xmlns:xlink="http://www.w3.org/1999/xlink">
    <!-- Generator: Sketch 55.2 (78181) - https://sketchapp.com -->
    <title>Artboard Copy 2</title>
    <desc>Created with Sketch.</desc>
    <g id="Artboard-Copy-2" stroke="none" stroke-width="1" fill="none" fill-rule="evenodd">
        <g id="Group-2" transform="translate(4.000000, 1.000000)">
            <path d="M7.14435041,18.9541848 L33.9091865,2.51292831 C35.7915408,1.35662496 38.2548595,1.94520554 39.4111628,3.82755983 C39.5379337,4.03393103 39.6456992,4.2513896 39.7331313,4.47725584 L44,15.5 L7.81256769,20.7957218 C7.26610344,20.8756922 6.75827783,20.4975242 6.67830745,19.9510599 C6.6204182,19.5554834 6.80369906,19.163442 7.14435041,18.9541848 Z" id="Path-2" stroke="#0F5EA5" stroke-width="4"></path>
            <g id="Group" transform="translate(0.000000, 7.000000)" fill-rule="nonzero">
                <path d="M13.5,5 C9.91014913,5 7,7.8653776 7,11.4 L7,62.6 C7,66.1346224 9.91014913,69 13.5,69 L52.5,69 C56.0898509,69 59,66.1346224 59,62.6 L59,11.4 C59,7.8653776 56.0898509,5 52.5,5 L13.5,5 L13.5,5 Z" id="Shape-Copy" fill="#0F5EA5" transform="translate(33.000000, 37.000000) rotate(-12.000000) translate(-33.000000, -37.000000) "></path>
                <g id="airplane-takeoff" transform="translate(33.000000, 37.000000) rotate(-12.000000) translate(-33.000000, -37.000000) translate(16.000000, 22.000000)" fill="#FFFFFF">
                    <path d="M1.95908404,25.7654335 L32.8762894,25.7654335 L32.8762894,29.0930296 L1.95908404,29.0930296 L1.95908404,25.7654335 L1.95908404,25.7654335 Z M33.8038055,10.1922838 C33.4620891,8.86124537 32.1114954,8.0626223 30.8097183,8.42865787 L22.169173,10.7912511 L10.9088014,0.0930296458 L7.80080862,0.941566651 L14.5375049,12.8709987 L6.45021492,15.0838501 L3.24458889,12.5216011 L0.885117955,13.1704823 L3.84666078,18.4280841 L5.09962121,20.6409356 L7.70317534,19.9421404 L16.3437206,17.5629092 L23.4221334,15.6329034 L32.0626787,13.2869482 C33.380728,12.8876366 34.145522,11.5233222 33.8038055,10.1922838 Z" id="Shape"></path>
                </g>
            </g>
        </g>
        <text id="Passport-Consultancy" font-family="Helvetica-Bold, Helvetica" font-size="20" font-weight="bold" fill="#0F5EA5">
            <tspan x="77" y="36">Passport</tspan>
            <tspan x="77" y="60">Consultancy</tspan>
        </text>
    </g>
</svg>