<?xml version="1.0" encoding="utf-8"?>
<!-- Generator: Adobe Illustrator 21.0.0, SVG Export Plug-In . SVG Version: 6.00 Build 0)  -->
<svg version="1.1" id="Layer_1" xmlns="http://www.w3.org/2000/svg" xmlns:xlink="http://www.w3.org/1999/xlink" x="0px" y="0px"
	 viewBox="0 0 300 300" style="enable-background:new 0 0 300 300;" xml:space="preserve">
<style type="text/css">
	.st0{opacity:0.12;}
	.st1{fill:#527EE9;}
	.st2{fill:#3E64AF;}
	.st3{fill:#35578E;}
	.st4{fill:#EE3840;}
	.st5{fill:#FFE1D6;}
</style>
<ellipse class="st0" cx="147.6" cy="280.6" rx="103.8" ry="12.8"/>
<g>
	<path class="st1" d="M188.3,33.8L188.3,33.8c-2.2,0-4.1,1.8-4.1,4.1v44.6h8.1V37.8C192.3,35.6,190.5,33.8,188.3,33.8z"/>
	<path class="st1" d="M204.5,50L204.5,50c-2.2,0-4.1,1.8-4.1,4.1v44.6h8.1V54C208.5,51.8,206.7,50,204.5,50z"/>
</g>
<path class="st2" d="M176.1,74.3h52.7c2.2,0,4.1,1.8,4.1,4.1v166.1h-56.7V74.3z"/>
<g>
	<rect x="176.1" y="228.2" class="st1" width="56.7" height="16.2"/>
	<rect x="172.1" y="212" class="st1" width="60.8" height="8.1"/>
</g>
<g>
	<rect x="216.6" y="212" class="st2" width="8.1" height="8.1"/>
	<rect x="184.2" y="212" class="st2" width="8.1" height="8.1"/>
	<rect x="200.4" y="212" class="st2" width="8.1" height="8.1"/>
</g>
<rect x="172.1" y="195.8" class="st1" width="60.8" height="8.1"/>
<g>
	<rect x="216.6" y="195.8" class="st2" width="8.1" height="8.1"/>
	<rect x="184.2" y="195.8" class="st2" width="8.1" height="8.1"/>
	<rect x="200.4" y="195.8" class="st2" width="8.1" height="8.1"/>
</g>
<rect x="172.1" y="179.6" class="st1" width="60.8" height="8.1"/>
<g>
	<rect x="216.6" y="179.6" class="st2" width="8.1" height="8.1"/>
	<rect x="184.2" y="179.6" class="st2" width="8.1" height="8.1"/>
	<rect x="200.4" y="179.6" class="st2" width="8.1" height="8.1"/>
</g>
<rect x="172.1" y="163.4" class="st1" width="60.8" height="8.1"/>
<g>
	<rect x="216.6" y="163.4" class="st2" width="8.1" height="8.1"/>
	<rect x="184.2" y="163.4" class="st2" width="8.1" height="8.1"/>
	<rect x="200.4" y="163.4" class="st2" width="8.1" height="8.1"/>
</g>
<rect x="172.1" y="147.2" class="st1" width="60.8" height="8.1"/>
<g>
	<rect x="216.6" y="147.2" class="st2" width="8.1" height="8.1"/>
	<rect x="184.2" y="147.2" class="st2" width="8.1" height="8.1"/>
	<rect x="200.4" y="147.2" class="st2" width="8.1" height="8.1"/>
</g>
<rect x="172.1" y="131" class="st1" width="60.8" height="8.1"/>
<g>
	<rect x="216.6" y="131" class="st2" width="8.1" height="8.1"/>
	<rect x="184.2" y="131" class="st2" width="8.1" height="8.1"/>
	<rect x="200.4" y="131" class="st2" width="8.1" height="8.1"/>
</g>
<rect x="172.1" y="114.8" class="st1" width="60.8" height="8.1"/>
<g>
	<rect x="216.6" y="114.8" class="st2" width="8.1" height="8.1"/>
	<rect x="184.2" y="114.8" class="st2" width="8.1" height="8.1"/>
	<rect x="200.4" y="114.8" class="st2" width="8.1" height="8.1"/>
</g>
<rect x="172.1" y="98.6" class="st1" width="60.8" height="8.1"/>
<g>
	<rect x="216.6" y="98.6" class="st2" width="8.1" height="8.1"/>
	<rect x="184.2" y="98.6" class="st2" width="8.1" height="8.1"/>
	<rect x="200.4" y="98.6" class="st2" width="8.1" height="8.1"/>
</g>
<rect x="172.1" y="82.4" class="st1" width="60.8" height="8.1"/>
<g>
	<rect x="216.6" y="82.4" class="st2" width="8.1" height="8.1"/>
	<rect x="184.2" y="82.4" class="st2" width="8.1" height="8.1"/>
	<rect x="200.4" y="82.4" class="st2" width="8.1" height="8.1"/>
</g>
<path class="st1" d="M176.1,244.4H54.6V17.6c0-2.2,1.8-4.1,4.1-4.1h113.4c2.2,0,4.1,1.8,4.1,4.1V244.4z"/>
<path class="st2" d="M66.7,203.9L66.7,203.9c-2.2,0-4.1-1.8-4.1-4.1v-162c0-2.2,1.8-4.1,4.1-4.1l0,0c2.2,0,4.1,1.8,4.1,4.1v162
	C70.8,202.1,69,203.9,66.7,203.9z"/>
<rect x="54.6" y="212" class="st2" width="121.5" height="32.4"/>
<path class="st3" d="M70.8,240.4v-16.2c0-2.2-1.8-4.1-4.1-4.1c-2.2,0-4.1,1.8-4.1,4.1v16.2H70.8z"/>
<path class="st2" d="M83,203.9L83,203.9c-2.2,0-4.1-1.8-4.1-4.1v-162c0-2.2,1.8-4.1,4.1-4.1l0,0c2.2,0,4.1,1.8,4.1,4.1v162
	C87,202.1,85.2,203.9,83,203.9z"/>
<path class="st3" d="M87,240.4v-16.2c0-2.2-1.8-4.1-4.1-4.1c-2.2,0-4.1,1.8-4.1,4.1v16.2H87z"/>
<path class="st2" d="M99.2,203.9L99.2,203.9c-2.2,0-4.1-1.8-4.1-4.1v-162c0-2.2,1.8-4.1,4.1-4.1l0,0c2.2,0,4.1,1.8,4.1,4.1v162
	C103.2,202.1,101.4,203.9,99.2,203.9z"/>
<path class="st3" d="M103.2,240.4v-16.2c0-2.2-1.8-4.1-4.1-4.1s-4.1,1.8-4.1,4.1v16.2H103.2z"/>
<path class="st2" d="M115.4,203.9L115.4,203.9c-2.2,0-4.1-1.8-4.1-4.1v-162c0-2.2,1.8-4.1,4.1-4.1l0,0c2.2,0,4.1,1.8,4.1,4.1v162
	C119.4,202.1,117.6,203.9,115.4,203.9z"/>
<path class="st3" d="M119.4,240.4v-16.2c0-2.2-1.8-4.1-4.1-4.1c-2.2,0-4.1,1.8-4.1,4.1v16.2H119.4z"/>
<path class="st2" d="M131.6,203.9L131.6,203.9c-2.2,0-4.1-1.8-4.1-4.1v-162c0-2.2,1.8-4.1,4.1-4.1l0,0c2.2,0,4.1,1.8,4.1,4.1v162
	C135.6,202.1,133.8,203.9,131.6,203.9z"/>
<path class="st3" d="M135.6,240.4v-16.2c0-2.2-1.8-4.1-4.1-4.1c-2.2,0-4.1,1.8-4.1,4.1v16.2H135.6z"/>
<path class="st2" d="M147.8,203.9L147.8,203.9c-2.2,0-4.1-1.8-4.1-4.1v-162c0-2.2,1.8-4.1,4.1-4.1l0,0c2.2,0,4.1,1.8,4.1,4.1v162
	C151.8,202.1,150,203.9,147.8,203.9z"/>
<path class="st3" d="M151.8,240.4v-16.2c0-2.2-1.8-4.1-4.1-4.1s-4.1,1.8-4.1,4.1v16.2L151.8,240.4L151.8,240.4z"/>
<path class="st2" d="M164,203.9L164,203.9c-2.2,0-4.1-1.8-4.1-4.1v-162c0-2.2,1.8-4.1,4.1-4.1l0,0c2.2,0,4.1,1.8,4.1,4.1v162
	C168,202.1,166.2,203.9,164,203.9z"/>
<g>
	<path class="st3" d="M168,240.4v-16.2c0-2.2-1.8-4.1-4.1-4.1s-4.1,1.8-4.1,4.1v16.2H168z"/>
	<rect x="62.7" y="187.7" class="st3" width="8.1" height="8.1"/>
	<rect x="78.9" y="187.7" class="st3" width="8.1" height="8.1"/>
	<rect x="95.1" y="187.7" class="st3" width="8.1" height="8.1"/>
	<rect x="111.3" y="187.7" class="st3" width="8.1" height="8.1"/>
	<rect x="127.5" y="187.7" class="st3" width="8.1" height="8.1"/>
	<rect x="143.7" y="187.7" class="st3" width="8.1" height="8.1"/>
	<rect x="159.9" y="187.7" class="st3" width="8.1" height="8.1"/>
	<rect x="62.7" y="163.4" class="st3" width="8.1" height="8.1"/>
	<rect x="78.9" y="163.4" class="st3" width="8.1" height="8.1"/>
	<rect x="95.1" y="163.4" class="st3" width="8.1" height="8.1"/>
	<rect x="111.3" y="163.4" class="st3" width="8.1" height="8.1"/>
	<rect x="127.5" y="163.4" class="st3" width="8.1" height="8.1"/>
	<rect x="143.7" y="163.4" class="st3" width="8.1" height="8.1"/>
	<rect x="159.9" y="163.4" class="st3" width="8.1" height="8.1"/>
	<rect x="62.7" y="139.1" class="st3" width="8.1" height="8.1"/>
	<rect x="78.9" y="139.1" class="st3" width="8.1" height="8.1"/>
	<rect x="95.1" y="139.1" class="st3" width="8.1" height="8.1"/>
	<rect x="111.3" y="139.1" class="st3" width="8.1" height="8.1"/>
	<rect x="127.5" y="139.1" class="st3" width="8.1" height="8.1"/>
	<rect x="143.7" y="139.1" class="st3" width="8.1" height="8.1"/>
	<rect x="159.9" y="139.1" class="st3" width="8.1" height="8.1"/>
	<rect x="62.7" y="114.8" class="st3" width="8.1" height="8.1"/>
	<rect x="78.9" y="114.8" class="st3" width="8.1" height="8.1"/>
	<rect x="95.1" y="114.8" class="st3" width="8.1" height="8.1"/>
	<rect x="111.3" y="114.8" class="st3" width="8.1" height="8.1"/>
	<rect x="127.5" y="114.8" class="st3" width="8.1" height="8.1"/>
	<rect x="143.7" y="114.8" class="st3" width="8.1" height="8.1"/>
	<rect x="159.9" y="114.8" class="st3" width="8.1" height="8.1"/>
	<rect x="62.7" y="90.5" class="st3" width="8.1" height="8.1"/>
	<rect x="78.9" y="90.5" class="st3" width="8.1" height="8.1"/>
	<rect x="95.1" y="90.5" class="st3" width="8.1" height="8.1"/>
	<rect x="111.3" y="90.5" class="st3" width="8.1" height="8.1"/>
	<rect x="127.5" y="90.5" class="st3" width="8.1" height="8.1"/>
	<rect x="143.7" y="90.5" class="st3" width="8.1" height="8.1"/>
	<rect x="159.9" y="90.5" class="st3" width="8.1" height="8.1"/>
	<rect x="62.7" y="66.2" class="st3" width="8.1" height="8.1"/>
	<rect x="78.9" y="66.2" class="st3" width="8.1" height="8.1"/>
	<rect x="95.1" y="66.2" class="st3" width="8.1" height="8.1"/>
	<rect x="111.3" y="66.2" class="st3" width="8.1" height="8.1"/>
	<rect x="127.5" y="66.2" class="st3" width="8.1" height="8.1"/>
	<rect x="143.7" y="66.2" class="st3" width="8.1" height="8.1"/>
	<rect x="159.9" y="66.2" class="st3" width="8.1" height="8.1"/>
	<rect x="62.7" y="41.9" class="st3" width="8.1" height="8.1"/>
	<rect x="78.9" y="41.9" class="st3" width="8.1" height="8.1"/>
	<rect x="95.1" y="41.9" class="st3" width="8.1" height="8.1"/>
	<rect x="111.3" y="41.9" class="st3" width="8.1" height="8.1"/>
	<rect x="127.5" y="41.9" class="st3" width="8.1" height="8.1"/>
	<rect x="143.7" y="41.9" class="st3" width="8.1" height="8.1"/>
	<rect x="159.9" y="41.9" class="st3" width="8.1" height="8.1"/>
</g>
<g>
	<path class="st2" d="M176.1,25.7H54.6v-8.1c0-2.2,1.8-4.1,4.1-4.1h113.4c2.2,0,4.1,1.8,4.1,4.1V25.7z"/>
	<path class="st2" d="M236.9,248.5H50.5c-2.2,0-4.1-1.8-4.1-4.1l0,0c0-2.2,1.8-4.1,4.1-4.1h186.3c2.2,0,4.1,1.8,4.1,4.1l0,0
		C240.9,246.7,239.1,248.5,236.9,248.5z"/>
</g>
<path class="st4" d="M275.5,173.7c0,34.2-38.6,65.8-38.6,65.8c-2.3,1.8-5.9,1.8-8.2,0c0,0-38.6-31.7-38.6-65.8
	c0-23.6,19.1-42.7,42.7-42.7C256.4,131,275.5,150.1,275.5,173.7z"/>
<path class="st5" d="M232.8,195.2c-11.8,0-21.5-9.6-21.5-21.5c0-11.8,9.6-21.5,21.5-21.5c11.8,0,21.5,9.6,21.5,21.5
	C254.3,185.5,244.7,195.2,232.8,195.2z"/>
</svg>
