<?xml version="1.0" encoding="utf-8"?>
<!-- Generator: Adobe Illustrator 21.0.0, SVG Export Plug-In . SVG Version: 6.00 Build 0)  -->
<svg version="1.1" id="Layer_1" xmlns="http://www.w3.org/2000/svg" xmlns:xlink="http://www.w3.org/1999/xlink" x="0px" y="0px"
	 viewBox="0 0 300 300" style="enable-background:new 0 0 300 300;" xml:space="preserve">
<style type="text/css">
	.st0{opacity:0.12;}
	.st1{fill:#527EE9;}
	.st2{fill:#C3DDF4;}
	.st3{fill:#AEC1ED;}
	.st4{fill:#3E64AF;}
	.st5{fill:#EEF6FF;}
	.st6{fill:#D9EAFC;}
	.st7{fill:#35578E;}
	.st8{fill:#FFE2B8;}
	.st9{fill:#FFC987;}
	.st10{fill:#38454F;}
	.st11{fill:none;stroke:#527EE9;stroke-miterlimit:10;}
	.st12{fill:#FFFFFF;}
	.st13{fill:#6AC259;}
</style>
<ellipse class="st0" cx="147.6" cy="280.6" rx="103.8" ry="12.8"/>
<path class="st1" d="M184.1,195.3c0-1,0.8-1.9,1.9-1.9h2c0.2,0,0.4-0.1,0.4-0.3c0.1-0.2,0-0.4-0.1-0.5l-22-22
	c-1.2-1.2-1.9-2.8-1.9-4.6c0-1.7,0.7-3.4,1.9-4.6l0.9-0.9c1.2-1.2,2.8-1.9,4.6-1.9c1.7,0,3.4,0.7,4.6,1.9l5.8,5.8
	c0.1,0.1,0.2,0.1,0.3,0.1c0.1,0,0.1,0,0.2,0c0.2-0.1,0.3-0.2,0.3-0.4v-47c0-3.6,2.9-6.5,6.5-6.5h0.2c2,0,3.7,0.9,4.9,2.2V13.6
	c0-2.5-2.1-4.6-4.6-4.6h-98c-2.5,0-4.6,2.1-4.6,4.6v180.3c0,2.5,2.1,4.6,4.6,4.6h92.2L184.1,195.3L184.1,195.3L184.1,195.3z"/>
<path class="st2" d="M164.4,166.1c0-1.7,0.7-3.4,1.9-4.6l0.9-0.9c1.2-1.2,2.8-1.9,4.6-1.9c1.7,0,3.4,0.7,4.6,1.9l5.8,5.8
	c0.1,0.1,0.2,0.1,0.3,0.1c0.1,0,0.1,0,0.2,0c0.2-0.1,0.3-0.2,0.3-0.4v-47c0-3.1,2.2-5.7,5.1-6.3V29c0-1.3-1.1-2.4-2.4-2.4H96.2
	c-1.3,0-2.4,1.1-2.4,2.4v137.4c0,1.3,1.1,2.4,2.4,2.4H165C164.6,168,164.4,167.1,164.4,166.1z"/>
<path class="st3" d="M102.9,166.4V29c0-1.3,1.1-2.4,2.4-2.4h-9.2c-1.3,0-2.4,1.1-2.4,2.4v137.4c0,1.3,1.1,2.4,2.4,2.4h9.2
	C104,168.8,102.9,167.7,102.9,166.4z"/>
<g>
	<circle class="st4" cx="140.8" cy="182.1" r="8.6"/>
	<path class="st4" d="M159.5,21.2H133c-1.9,0-3.5-1.6-3.5-3.5s1.6-3.5,3.5-3.5h26.6c1.9,0,3.5,1.6,3.5,3.5S161.4,21.2,159.5,21.2z"
		/>
	<circle class="st4" cx="122.2" cy="17.7" r="3.9"/>
</g>
<path class="st5" d="M164.4,166.1c0-1.7,0.7-3.4,1.9-4.6l0.9-0.9c1.2-1.2,2.8-1.9,4.6-1.9c1.7,0,3.4,0.7,4.6,1.9l5.8,5.8
	c0.1,0.1,0.2,0.1,0.3,0.1c0.1,0,0.1,0,0.2,0c0.2-0.1,0.3-0.2,0.3-0.4v-42H93.7v42.3c0,1.3,1.1,2.4,2.4,2.4H165
	C164.6,168,164.4,167.1,164.4,166.1z"/>
<path class="st6" d="M102.9,166.4V124h-9.2v42.3c0,1.3,1.1,2.4,2.4,2.4h9.2C104,168.8,102.9,167.7,102.9,166.4z"/>
<g>
	<path class="st4" d="M148.2,137.1h-36.9c-1.9,0-3.5-1.6-3.5-3.5c0-1.9,1.6-3.5,3.5-3.5h36.9c1.9,0,3.5,1.6,3.5,3.5
		C151.7,135.5,150.1,137.1,148.2,137.1z"/>
	<path class="st4" d="M148.2,148.6h-36.9c-1.9,0-3.5-1.6-3.5-3.5c0-1.9,1.6-3.5,3.5-3.5h36.9c1.9,0,3.5,1.6,3.5,3.5
		C151.7,147.1,150.1,148.6,148.2,148.6z"/>
	<path class="st4" d="M129.8,160.1h-18.5c-1.9,0-3.5-1.6-3.5-3.5c0-1.9,1.6-3.5,3.5-3.5h18.5c1.9,0,3.5,1.6,3.5,3.5
		C133.3,158.6,131.7,160.1,129.8,160.1z"/>
</g>
<path class="st1" d="M188.3,212.4v32c17-2.9,32.6-9.5,46.1-19v-13H188.3z"/>
<path class="st7" d="M188.3,212.4v32c3.1-0.5,6.2-1.2,9.2-1.9v-30H188.3z"/>
<path class="st8" d="M235.2,193.5v-48.1c0-3.8-3.1-6.9-6.9-6.9h-0.2c-2.8,0-5.3,1.7-6.4,4.2c-1.1-2.4-3.5-4.2-6.4-4.2h-0.2
	c-2.8,0-5.3,1.7-6.4,4.2c-1.1-2.4-3.5-4.2-6.4-4.2h-0.2c-2.4,0-4.5,1.2-5.8,3.1V119c0-3.8-3.1-6.9-6.9-6.9h-0.2
	c-3.8,0-6.9,3.1-6.9,6.9v47l-5.8-5.8c-2.7-2.7-7.1-2.7-9.8,0l-0.9,0.9c-2.7,2.7-2.7,7.1,0,9.8l22.5,22.5H235.2z"/>
<path class="st9" d="M197.6,193.5L175.1,171c-2.7-2.7-2.7-7.1,0-9.8l0.9-0.9c0.1-0.1,0.2-0.2,0.3-0.3c-2.7-2.4-6.9-2.3-9.5,0.3
	l-0.9,0.9c-2.7,2.7-2.7,7.1,0,9.8l22.5,22.5H197.6z"/>
<path class="st4" d="M239.1,210.6c0,1.3-1,2.3-2.3,2.3h-50.9c-1.3,0-2.3-1-2.3-2.3v-15.3c0-1.3,1-2.3,2.3-2.3h50.9
	c1.3,0,2.3,1,2.3,2.3V210.6z"/>
<path class="st7" d="M192.8,210.6v-15.3c0-1.3,1-2.3,2.3-2.3h-9.2c-1.3,0-2.3,1-2.3,2.3v15.3c0,1.3,1,2.3,2.3,2.3h9.2
	C193.8,212.9,192.8,211.8,192.8,210.6z"/>
<circle class="st7" cx="229" cy="202.9" r="4.3"/>
<polygon class="st1" points="158,43 126.6,43 108.6,43 108.6,58.7 176.1,58.7 176.1,43 "/>
<circle class="st10" cx="131.5" cy="47.8" r="2.4"/>
<circle class="st10" cx="138.7" cy="47.8" r="2.4"/>
<circle class="st10" cx="146" cy="47.8" r="2.4"/>
<circle class="st10" cx="153.2" cy="47.8" r="2.4"/>
<path class="st4" d="M153.2,37c-1.4,0-2.6,0.5-3.6,1.2c0.6,0.5,1.2,1.1,1.6,1.8c0.6-0.4,1.3-0.6,2-0.6c2,0,3.6,1.6,3.6,3.6
	s-1.6,3.6-3.6,3.6c-0.7,0-1.2,0.5-1.2,1.2s0.5,1.2,1.2,1.2c3.3,0,6-2.7,6-6S156.5,37,153.2,37z"/>
<path class="st10" d="M148,40c-0.5,0.9-0.8,1.9-0.8,3h2.4C149.6,41.8,148.9,40.7,148,40z"/>
<path class="st10" d="M140.7,40c-0.5,0.9-0.8,1.9-0.8,3h2.4C142.3,41.8,141.7,40.7,140.7,40z"/>
<path class="st4" d="M151.2,40c-0.4-0.7-0.9-1.3-1.6-1.8c-1-0.8-2.3-1.2-3.6-1.2c-1.4,0-2.6,0.5-3.6,1.2c0.6,0.5,1.2,1.1,1.6,1.8
	c0.6-0.4,1.3-0.6,2-0.6c0.8,0,1.5,0.2,2,0.6c1,0.7,1.6,1.7,1.6,3c0,2-1.6,3.6-3.6,3.6c-0.7,0-1.2,0.5-1.2,1.2s0.5,1.2,1.2,1.2
	c3.3,0,6-2.7,6-6C152,41.9,151.7,40.9,151.2,40z"/>
<path class="st10" d="M133.5,40c-0.5,0.9-0.8,1.9-0.8,3h2.4C135.1,41.8,134.5,40.7,133.5,40z"/>
<path class="st4" d="M143.9,40c-0.4-0.7-0.9-1.3-1.6-1.8c-1-0.8-2.3-1.2-3.6-1.2c-1.4,0-2.6,0.5-3.6,1.2c0.6,0.5,1.2,1.1,1.6,1.8
	c0.6-0.4,1.3-0.6,2-0.6s1.5,0.2,2,0.6c1,0.7,1.6,1.7,1.6,3c0,2-1.6,3.6-3.6,3.6c-0.7,0-1.2,0.5-1.2,1.2s0.5,1.2,1.2,1.2
	c3.3,0,6-2.7,6-6C144.7,41.9,144.4,40.9,143.9,40z"/>
<path class="st4" d="M136.7,40c-0.4-0.7-0.9-1.3-1.6-1.8c-1-0.8-2.3-1.2-3.6-1.2c-3.3,0-6,2.7-6,6h2.4c0-2,1.6-3.6,3.6-3.6
	c0.8,0,1.5,0.2,2,0.6c1,0.7,1.6,1.7,1.6,3c0,2-1.6,3.6-3.6,3.6c-0.7,0-1.2,0.5-1.2,1.2s0.5,1.2,1.2,1.2c3.3,0,6-2.7,6-6
	C137.5,41.9,137.2,40.9,136.7,40z"/>
<rect x="109.1" y="58.7" class="st11" width="66.5" height="48.3"/>
<circle class="st1" cx="123" cy="72" r="6"/>
<circle class="st1" cx="142.3" cy="72" r="6"/>
<circle class="st1" cx="161.6" cy="72" r="6"/>
<circle class="st1" cx="123" cy="91.3" r="6"/>
<circle class="st1" cx="142.3" cy="91.3" r="6"/>
<ellipse class="st12" cx="172.1" cy="101.5" rx="11.3" ry="10.9"/>
<path class="st13" d="M171.4,84.8c-9.1,0-16.5,7.4-16.5,16.5s7.4,16.5,16.5,16.5c9.1,0,16.5-7.4,16.5-16.5S180.6,84.8,171.4,84.8z
	 M168.4,109.7l-7.3-7.3l2.4-2.4l4.9,4.8L179.3,94l2.4,2.4L168.4,109.7z"/>
</svg>
