<?xml version="1.0" encoding="utf-8"?>
<!-- Generator: Adobe Illustrator 21.0.0, SVG Export Plug-In . SVG Version: 6.00 Build 0)  -->
<svg version="1.1" id="Layer_1" xmlns="http://www.w3.org/2000/svg" xmlns:xlink="http://www.w3.org/1999/xlink" x="0px" y="0px"
	 viewBox="0 0 300 300" style="enable-background:new 0 0 300 300;" xml:space="preserve">
<style type="text/css">
	.st0{opacity:0.12;}
	.st1{fill:#527EE9;}
	.st2{fill:#3E64AF;}
	.st3{fill:#F4D3A6;}
	.st4{fill:#FFE7CF;}
	.st5{fill:#9BFBFF;}
	.st6{fill:#009698;}
	.st7{fill:#00B6BD;}
	.st8{fill:#46F8FF;}
	.st9{fill:#00E7F0;}
	.st10{fill:#00D7DF;}
	.st11{fill:#35578E;}
</style>
<ellipse class="st0" cx="152.6" cy="280.6" rx="103.8" ry="12.8"/>
<path class="st1" d="M154.7,149.9c50.9-55.3,52.9-121.6,52.9-138.2H77.4c-9,0-16.3,7.3-16.3,16.3v162.6c0,5.7,3,11,7.9,13.9
	C101.8,193.9,131.3,175.1,154.7,149.9z"/>
<path class="st2" d="M154.7,149.9c-23.4,25.2-52.9,44-85.6,54.5c2.5,1.5,5.4,2.4,8.4,2.4h130.1V11.7
	C207.5,28.3,205.6,94.6,154.7,149.9z"/>
<path class="st3" d="M172,142.9c-6.4-6.1-16.5-5.9-22.7,0.3c-6.2,6.2-6.4,16.3-0.3,22.7l5,5l23-23L172,142.9z"/>
<path class="st4" d="M254.9,128.2l-42.2-42.2c-1.5-1.5-3.2-2.7-5.2-3.5v95.9L177,147.9l-23,23l20.3,20.3c3,3,4.8,7.2,4.8,11.5v4.2
	c0,22.5,18.2,40.7,40.7,40.7h44.7v-96.3C264.5,142.6,261,134.3,254.9,128.2z"/>
<path class="st5" d="M154.7,76.7h16.3c0-20.2-16.4-36.6-36.6-36.6C145.6,40.1,154.7,56.5,154.7,76.7z"/>
<path class="st6" d="M114,76.7H97.8c0,20.2,16.4,36.6,36.6,36.6C123.1,113.3,114,96.9,114,76.7z"/>
<path class="st7" d="M134.4,40.1c-20.2,0-36.6,16.4-36.6,36.6H114C114,56.5,123.1,40.1,134.4,40.1z"/>
<path class="st8" d="M170.9,76.7h-16.3c0,20.2-9.1,36.6-20.3,36.6C154.6,113.3,170.9,96.9,170.9,76.7z"/>
<path class="st9" d="M154.7,76.7c0-20.2-9.1-36.6-20.3-36.6v36.6H154.7z"/>
<path class="st7" d="M114,76.7c0,20.2,9.1,36.6,20.3,36.6V76.7H114z"/>
<path class="st10" d="M154.7,76.7h-20.3v36.6C145.6,113.3,154.7,96.9,154.7,76.7z"/>
<path class="st10" d="M114,76.7h20.3V40.1C123.1,40.1,114,56.5,114,76.7z"/>
<g>
	<path class="st11" d="M77.4,56.4c2.2,0,4.1-1.8,4.1-4.1V36.1c0-2.2,1.8-4.1,4.1-4.1h16.3c2.2,0,4.1-1.8,4.1-4.1s-1.8-4.1-4.1-4.1
		H85.6c-6.7,0-12.2,5.5-12.2,12.2v16.3C73.4,54.6,75.2,56.4,77.4,56.4z"/>
	<path class="st11" d="M101.8,186.5H85.6c-2.2,0-4.1-1.8-4.1-4.1v-16.3c0-2.2-1.8-4.1-4.1-4.1c-2.2,0-4.1,1.8-4.1,4.1v16.3
		c0,6.7,5.5,12.2,12.2,12.2h16.3c2.2,0,4.1-1.8,4.1-4.1C105.9,188.3,104.1,186.5,101.8,186.5z"/>
</g>
</svg>
