<svg xmlns="http://www.w3.org/2000/svg" viewBox="0 0 410.25 461.92"><defs><style>.cls-1{opacity:0.12;}.cls-2{opacity:0.17;}.cls-3{fill:#527ee9;}.cls-4{fill:#f7d77f;}.cls-5{fill:#8cad81;}.cls-6,.cls-8,.cls-9{fill:#0f3772;}.cls-7{fill:none;stroke:#0f3772;stroke-miterlimit:10;stroke-width:3px;}.cls-8{font-size:22.45px;}.cls-8,.cls-9{font-family:CreditCard, Credit Card;}.cls-9{font-size:33.66px;}</style></defs><title>online payment</title><g id="Layer_2" data-name="Layer 2"><g id="OBJECTS"><ellipse class="cls-1" cx="208.9" cy="437.15" rx="201.35" ry="24.77"/></g><g id="Layer_3" data-name="Layer 3"><rect class="cls-2" x="34.15" y="85.39" width="338.99" height="209.21" rx="10.68" ry="10.68" transform="matrix(0.92, -0.4, 0.4, 0.92, -58.91, 97.08)"/><rect class="cls-3" x="24.41" y="77.24" width="338.99" height="209.21" rx="10.68" ry="10.68" transform="translate(-56.47 92.51) rotate(-23.53)"/><rect class="cls-4" x="25.6" y="101.27" width="310.17" height="100.44" rx="10.68" ry="10.68" transform="translate(-45.45 84.71) rotate(-23.53)"/><rect class="cls-5" x="66.83" y="231.75" width="310.17" height="33.69" rx="10.68" ry="10.68" transform="translate(-80.78 109.24) rotate(-23.53)"/><rect class="cls-2" x="8.9" y="11.63" width="338.99" height="209.21" rx="10.68" ry="10.68"/><rect class="cls-3" width="338.99" height="209.21" rx="10.68" ry="10.68"/><circle class="cls-6" cx="274.05" cy="51.7" r="24.47"/><circle class="cls-6" cx="34.47" cy="87.79" r="15.61"/><circle class="cls-7" cx="235.91" cy="51.7" r="24.47"/><rect class="cls-3" x="246.56" y="41.05" width="10.59" height="2.22"/><rect class="cls-3" x="249.1" y="46.29" width="10.59" height="2.22"/><rect class="cls-3" x="246.56" y="51.54" width="13.14" height="2.22"/><rect class="cls-3" x="249.1" y="56.78" width="10.59" height="2.22"/><rect class="cls-3" x="246.56" y="62.02" width="10.59" height="2.22"/><rect class="cls-3" x="27.75" y="69.7" width="3.07" height="37.18"/><rect class="cls-3" x="17.58" y="90.94" width="33.53" height="3.18"/><rect class="cls-3" x="18.86" y="78.39" width="9.69" height="2.07"/><rect class="cls-3" x="40.78" y="80.46" width="12.24" height="2.38"/><rect class="cls-3" x="40.78" y="80.46" width="2.22" height="22.94"/><text class="cls-8" transform="translate(1.54 141.72)">3141 5626 4898 7772</text><text class="cls-9" transform="translate(1.54 181.84)">CREDIT CARD</text></g></g></svg>