<?xml version="1.0" encoding="utf-8"?>
<!-- Generator: Adobe Illustrator 21.0.0, SVG Export Plug-In . SVG Version: 6.00 Build 0)  -->
<svg version="1.1" xmlns="http://www.w3.org/2000/svg" xmlns:xlink="http://www.w3.org/1999/xlink" x="0px" y="0px"
	 viewBox="0 0 500 500" style="enable-background:new 0 0 500 500;" xml:space="preserve">
<style type="text/css">
	.st0{opacity:0.17;}
	.st1{opacity:0.12;}
	.st2{fill:#3E64AF;}
	.st3{fill:#527EE9;}
	.st4{fill:#F7D77F;}
	.st5{fill:#004686;}
	.st6{fill:#E6E6E6;}
	.st7{opacity:0.28;}
	.st8{fill:#0F3772;}
	.st9{fill:#1A1A1A;}
	.st10{fill:#042759;}
	.st11{fill:#DAE7E8;}
	.st12{fill:#153E49;}
	.st13{fill:#8CAD81;}
</style>
<g id="BACKGROUND">
</g>
<g id="OBJECTS">
	<path class="st0" d="M378.7,28.6l-0.2-0.3h-20.2H90.2l0.7,0.7h-2.6c-16.8,0-30.4,13.6-30.4,30.4v306.9H32.4l-0.2,0.3
		c-12.5,15-12.5,36.8,0,51.8l0.2,0.3c0,0,9.7,0,25.4,0h262.8h0.4c18.3,0,33-14.8,33-33V81.4c0,0,0-0.3,0-0.7h24.4l0.2-0.3
		C391.2,65.4,391.2,43.6,378.7,28.6z"/>
	<ellipse class="st1" cx="184.5" cy="465.7" rx="170" ry="20.9"/>
	<g>
		<g>
			<path class="st2" d="M80.7,73.2H369l0.2-0.3c12.5-15,12.5-36.8,0-51.8l-0.2-0.3h-20.2H80.7l1.4,1.5C95.5,36.7,95,59.1,81,72.9
				L80.7,73.2z"/>
			<path class="st3" d="M311.6,411.1H48.4V51.8c0-16.8,13.6-30.4,30.4-30.4h257.5c0,0,26.7-1.6,26.2,0
				c-18.7,0.4-17.8,52.4-17.8,52.4V378C344.6,396.3,329.9,411.1,311.6,411.1z"/>
			<path class="st2" d="M311.2,411.1c-11.7,0-288.3,0-288.3,0l-0.2-0.3c-12.5-15-12.5-36.8,0-51.8l0.2-0.3h288.3l-1.4,1.5
				C296.4,374.6,294.1,399.2,311.2,411.1C311.2,411.1,323,411.1,311.2,411.1z"/>
		</g>
		<rect x="112.4" y="79.6" class="st4" width="179.1" height="15.1"/>
		<rect x="236.4" y="335.7" class="st5" width="80.1" height="4.9"/>
		<rect x="87.5" y="123" class="st6" width="228.9" height="6.1"/>
		<rect x="87.5" y="153" class="st6" width="228.9" height="6.1"/>
		<rect x="87.5" y="183.1" class="st6" width="228.9" height="6.1"/>
		<rect x="87.5" y="213.1" class="st6" width="228.9" height="6.1"/>
		<rect x="87.5" y="243.2" class="st6" width="228.9" height="6.1"/>
		<rect x="87.5" y="303.3" class="st6" width="228.9" height="6.1"/>
		<rect x="87.5" y="273.2" class="st6" width="228.9" height="6.1"/>
	</g>
	<path class="st7" d="M484.7,102.3l-2.6-1.6l-0.7-0.4l-1.3-0.8l4.1-6.7c0.3-0.4,0.1-1-0.3-1.2l-22.6-13.9c-0.4-0.3-1-0.1-1.2,0.3
		l-4.1,6.7l-1.5-0.9c-0.3-0.2-0.8-0.1-1,0.2l-1.8,2.9c-0.2,0.3-0.1,0.8,0.2,1l1.5,0.9L418,146.4c-0.3,0.4-0.1,1,0.3,1.2l2.1,1.3
		L343,274.7l-1.6-1c-0.6-0.4-1.3-0.2-1.7,0.4l0,0c-0.4,0.6-0.2,1.3,0.4,1.7l1.8,1.1l-0.4,0.9l-1.9-1.2c-0.6-0.4-1.3-0.2-1.7,0.4l0,0
		c-0.4,0.6-0.2,1.3,0.4,1.7l2.2,1.3l-7.2,16.1l0,0l-7.9,17.7l-4.4,2.7l-4,16.8l2.2,1.3l13.6-11.2l0.7-4.7l12.9-14.6l0,0l0,0
		l11.7-13.2l1.9,1.2c0.6,0.4,1.3,0.2,1.7-0.4l0,0c0.4-0.6,0.2-1.3-0.4-1.7l-1.6-1l0.7-0.8l1.4,0.9c0.6,0.4,1.3,0.2,1.7-0.4l0,0
		c0.4-0.6,0.2-1.3-0.4-1.7l-1.2-0.7l73.7-120l3.6-5.8l1.5,0.9c0.4,0.3,1,0.1,1.2-0.3l35.4-57.7l0.7,0.4c0.3,0.2,0.4,0.6,0.2,1
		l-23.3,37.9c-0.2,0.3-0.1,0.8,0.2,1l2.7,1.7c0.3,0.2,0.8,0.1,1-0.2l25.8-42C485.1,103,485,102.5,484.7,102.3z"/>
	<g>
		<polygon class="st8" points="340.2,300.9 326.9,292.9 336,272.1 422.2,128.3 441.4,139.8 355.2,283.5 		"/>
		<path class="st8" d="M433,157.1l-22.8-13.6c-0.4-0.3-0.6-0.8-0.3-1.2l41.3-68.9c0.3-0.4,0.8-0.6,1.2-0.3l22.8,13.6
			c0.4,0.3,0.6,0.8,0.3,1.2l-41.3,68.9C434,157.2,433.4,157.4,433,157.1z"/>
		<path class="st9" d="M473.5,95.8l-0.7-0.4l-27.1-16.2c-0.3-0.2-0.8-0.1-1,0.2l-1.7,2.9c-0.2,0.3-0.1,0.8,0.2,1l26.5,15.9
			c0.3,0.2,0.4,0.6,0.2,1l-22.9,38.1c-0.2,0.3-0.1,0.8,0.2,1l2.8,1.6c0.3,0.2,0.8,0.1,1-0.2l25.3-42.3c0.2-0.3,0.1-0.8-0.2-1
			L473.5,95.8z"/>
		<polygon class="st10" points="327.4,315.6 319.2,310.7 336,272.1 355.2,283.6 		"/>
		<polygon class="st11" points="327.4,315.6 319.2,310.7 314.9,313.5 311.1,330.4 313.3,331.7 326.8,320.4 		"/>
		<path class="st10" d="M355.5,285.7l-22-13.2c-0.6-0.3-0.8-1.1-0.4-1.7l0,0c0.3-0.6,1.1-0.8,1.7-0.4l22,13.2
			c0.6,0.3,0.8,1.1,0.4,1.7l0,0C356.9,285.8,356.1,286,355.5,285.7z"/>
		<path class="st10" d="M353.7,288.6l-22-13.2c-0.6-0.3-0.8-1.1-0.4-1.7l0,0c0.3-0.6,1.1-0.8,1.7-0.4l22,13.2
			c0.6,0.3,0.8,1.1,0.4,1.7l0,0C355.1,288.8,354.3,289,353.7,288.6z"/>
		<g>
			
				<ellipse transform="matrix(0.5142 -0.8577 0.8577 0.5142 -120.3651 429.0311)" class="st12" cx="318.5" cy="320.8" rx="1.8" ry="1.8"/>
			
				<rect x="309.6" y="325.9" transform="matrix(0.5142 -0.8577 0.8577 0.5142 -126.7316 428.8706)" class="st12" width="11.2" height="0.9"/>
		</g>
		<polygon class="st7" points="412.3,144.7 431.5,156.2 420.9,173.9 		"/>
	</g>
	<rect x="112.4" y="79.6" class="st13" width="25.3" height="15.1"/>
</g>
</svg>
