<?xml version="1.0" encoding="UTF-8"?>
<svg width="202px" height="82px" viewBox="0 0 202 82" version="1.1" xmlns="http://www.w3.org/2000/svg" xmlns:xlink="http://www.w3.org/1999/xlink">
    <!-- Generator: Sketch 55.2 (78181) - https://sketchapp.com -->
    <title>Artboard Copy 4</title>
    <desc>Created with Sketch.</desc>
    <g id="Artboard-Copy-4" stroke="none" stroke-width="1" fill="none" fill-rule="evenodd">
        <g id="Group-2" transform="translate(6.000000, 1.000000)">
            <path d="M5.14435041,18.9541848 L31.9091865,2.51292831 C33.7915408,1.35662496 36.2548595,1.94520554 37.4111628,3.82755983 C37.5379337,4.03393103 37.6456992,4.2513896 37.7331313,4.47725584 L42,15.5 L5.81256769,20.7957218 C5.26610344,20.8756922 4.75827783,20.4975242 4.67830745,19.9510599 C4.6204182,19.5554834 4.80369906,19.163442 5.14435041,18.9541848 Z" id="Path-2" stroke="#FFFFFF" stroke-width="4"></path>
            <g id="Group" transform="translate(0.000000, 8.000000)">
                <path d="M5.27294768,8.75355475 L43.4207041,0.644998806 C46.9321081,-0.101373159 50.374409,2.09633504 51.1092983,5.55371746 L61.7543769,55.6348746 C62.4892662,59.092257 60.2384563,62.5000733 56.7270523,63.2464453 L18.5792959,71.3550012 C15.0678919,72.1013732 11.625591,69.903665 10.8907017,66.4462825 L0.245623096,16.3651254 C-0.489266223,12.907743 1.76154366,9.49992671 5.27294768,8.75355475 Z M18.5260236,49.6573653 L19.2178698,52.9122454 L49.45946,46.484197 L48.7676139,43.2293168 L18.5260236,49.6573653 Z M46.4370217,27.8036363 C45.8260341,26.5727311 44.338911,26.0723641 43.141684,26.7010556 L35.1811661,30.8084909 L21.9425753,22.6852141 L19.0789204,24.1613966 L28.1486721,34.429504 L20.6981864,38.2754414 L17.0298895,36.4356708 L14.8568887,37.560934 L18.8468316,42.0879053 L20.5324895,43.9918955 L22.933862,42.7670613 L30.8909207,38.6433516 L37.4133824,35.2838363 L45.3773595,31.1926755 C46.5835847,30.528052 47.0480093,29.0345415 46.4370217,27.8036363 Z" id="Combined-Shape" fill="#FFFFFF" fill-rule="nonzero"></path>
                <g id="airplane-takeoff" transform="translate(31.000000, 36.000000) rotate(-12.000000) translate(-31.000000, -36.000000) translate(14.000000, 21.000000)"></g>
            </g>
        </g>
        <text id="Passport-Consultancy" font-family="Helvetica-Bold, Helvetica" font-size="20" font-weight="bold" fill="#FFFFFF">
            <tspan x="77" y="36">Passport</tspan>
            <tspan x="77" y="60">Consultancy</tspan>
        </text>
    </g>
</svg>