<?xml version="1.0" encoding="utf-8"?>
<!-- Generator: Adobe Illustrator 21.0.0, SVG Export Plug-In . SVG Version: 6.00 Build 0)  -->
<svg version="1.1" id="Layer_1" xmlns="http://www.w3.org/2000/svg" xmlns:xlink="http://www.w3.org/1999/xlink" x="0px" y="0px"
	 viewBox="0 0 300 300" style="enable-background:new 0 0 300 300;" xml:space="preserve">
<style type="text/css">
	.st0{opacity:0.12;}
	.st1{fill:#FFE7CF;}
	.st2{fill:#F4D3A6;}
	.st3{fill:#EDEDED;}
	.st4{fill:#527EE9;}
	.st5{fill:#3E64AF;}
	.st6{fill:#383838;}
	.st7{fill:#35578E;}
	.st8{fill:#FFBF14;}
	.st9{fill:#EAA200;}
</style>
<ellipse class="st0" cx="152.6" cy="280.6" rx="103.8" ry="12.8"/>
<path class="st1" d="M169.5,185.1l23.7-22.3l-9.4-1.7c-4.5-0.9-7.8-6.2-7.8-10.8v-20.6h-22l0,0h-22v20.6c0,4.6-3.3,9.9-7.8,10.8
	l-9.4,1.7l23.7,22.3C147.2,193.3,160.8,193.3,169.5,185.1z"/>
<path class="st2" d="M155.8,129.6V159c0,4.6,3.3,9.9,7.8,10.8l18.6,3.4l11-10.4l-9.4-1.7c-4.5-0.9-7.8-6.2-7.8-10.8v-20.6H155.8z"/>
<path class="st3" d="M151,232.5L151,232.5L151,232.5z"/>
<path class="st4" d="M219.2,164.8l-33.5-6.2c-1.2-0.2-2.5,0.1-3.5,0.8L154,180.5l-28.2-21.1c-1-0.7-2.3-1-3.5-0.8l-33.5,6.2
	c-16.8,5-28.4,20.4-28.4,37.9v40.1c0,4.6,3.7,8.3,8.3,8.3h170.5c4.6,0,8.3-3.7,8.3-8.3v-40.1C247.6,185.2,236,169.7,219.2,164.8z"/>
<g>
	<path class="st5" d="M219.2,164.8l-33.5-6.2c-1.2-0.2-2.5,0.1-3.5,0.8l-14.8,11.1l31.8,5.9c16.8,5,28.4,9.6,28.4,27.1v47.6h11.6
		c4.6,0,8.3-3.7,8.3-8.3v-40.1C247.6,185.2,236,169.7,219.2,164.8z"/>
	<path class="st5" d="M112.7,160.3L131,186c1.4,1.9,3.9,2.6,6.1,1.7l16.9-7.2l-28.2-21.1c-1-0.7-2.3-1-3.5-0.8L112.7,160.3z"/>
	<path class="st5" d="M195.3,160.3L177,186c-1.4,1.9-3.9,2.6-6.1,1.7l-16.9-7.2l28.2-21.1c1-0.7,2.3-1,3.5-0.8L195.3,160.3z"/>
</g>
<path class="st4" d="M154,5.9c-35.5,0-64.3,24.6-64.3,38.4s28.8,23.8,64.3,23.8s64.3-9.9,64.3-23.8S189.5,5.9,154,5.9z"/>
<path class="st5" d="M154,5.9c-3.4,0-6.8,0.2-10.1,0.7c30.7,4,54.1,25.2,54.1,37.8s-23.5,21.8-54.1,23.5c3.3,0.2,6.7,0.3,10.1,0.3
	c35.5,0,64.3-9.9,64.3-23.8S189.5,5.9,154,5.9z"/>
<path class="st1" d="M200,83.1H197v-3.4v-8.2c0-11.6-4.8-22.9-13.6-30.5c-6.9-5.9-52-5.9-58.9,0c-8.8,7.6-13.6,18.9-13.6,30.5v8.2
	v3.4H108c-4.3,0-7.8,3.5-7.8,7.8v8.6c0,4.3,3.5,7.8,7.8,7.8h2.9c0.2,11.3,5,22.2,13.6,29.6c6.9,5.9,16.6,11.1,29.4,11.3
	c12.8-0.1,22.5-5.3,29.4-11.3c8.6-7.4,13.3-18.3,13.6-29.6h2.9c4.3,0,7.8-3.5,7.8-7.8v-8.6C207.7,86.6,204.3,83.1,200,83.1z"/>
<path class="st2" d="M200,83.1H197v-3.4v-8.2c0-11.6-4.8-22.9-13.6-30.5c-4.3-3.7-23.8-5.1-39.4-4.2c9.2,0.6,16.9,2,19.5,4.2
	c8.8,7.6,13.6,18.9,13.6,30.5v8.2l0,27.6c-0.2,11.3-5,22.2-13.6,29.6c-5,4.3-11.5,8.2-19.5,10.1c3.1,0.7,6.4,1.1,9.9,1.2
	c12.8-0.1,22.5-5.3,29.4-11.3c8.6-7.4,13.3-18.3,13.6-29.6h2.9c4.3,0,7.8-3.5,7.8-7.8v-8.6C207.7,86.6,204.3,83.1,200,83.1z"/>
<path class="st6" d="M104.5,57.1V84c0,0,6.6-0.1,10.8,4c0.9,0.9,2.4,0.2,2.4-1V67.1h72.7V87c0,1.2,1.5,1.9,2.4,1
	c4.2-4.2,10.8-4,10.8-4V57.1C203.5,40.5,104.5,40.5,104.5,57.1z"/>
<path class="st5" d="M154,79c-27.4,0-49.5-8.5-49.5-19h99.1C203.5,70.5,181.4,79,154,79z"/>
<path class="st7" d="M104.5,46.8V60h99.1V47c0-3.5-2.4-6.6-5.8-7.5c-9.2-2.3-27.8-6.4-46-6.5c-16.8,0-33.2,4-41.6,6.4
	C106.8,40.3,104.5,43.4,104.5,46.8z"/>
<g>
	<polygon class="st7" points="154,180.5 140.7,186.1 148.5,195.2 159.5,195.2 167.3,186.1 	"/>
	<polygon class="st7" points="159.5,195.2 154,195.2 148.5,195.2 140.7,251.1 167.3,251.1 	"/>
</g>
<g>
	<path class="st5" d="M204.5,232.5H185c-1.3,0-2.3-1-2.3-2.3v-10.4c0-1.3,1-2.3,2.3-2.3h19.5c1.3,0,2.3,1,2.3,2.3v10.4
		C206.9,231.4,205.8,232.5,204.5,232.5z"/>
	<path class="st5" d="M123,232.5h-19.5c-1.3,0-2.3-1-2.3-2.3v-10.4c0-1.3,1-2.3,2.3-2.3H123c1.3,0,2.3,1,2.3,2.3v10.4
		C125.3,231.4,124.3,232.5,123,232.5z"/>
</g>
<path class="st8" d="M67.9,189.3c3.7,2.9,9,2.4,12-1.3l4-5c2.9-3.7,2.4-9-1.3-12l-2.9-2.3c-6.9,4.1-12.4,10.2-15.7,17.4L67.9,189.3z
	"/>
<path class="st9" d="M243.9,186.2c-3.3-7.2-8.8-13.3-15.7-17.4l-2.9,2.3c-3.7,2.9-4.2,8.3-1.3,12l4,5c2.9,3.7,8.3,4.2,12,1.3
	L243.9,186.2z"/>
<g>
	<path class="st7" d="M220.8,213.7c-2,0-3.7,1.7-3.7,3.7v33.7h7.4v-33.7C224.5,215.4,222.8,213.7,220.8,213.7z"/>
	<path class="st7" d="M87.2,213.7c-2,0-3.7,1.7-3.7,3.7v33.7h7.4v-33.7C90.9,215.4,89.3,213.7,87.2,213.7z"/>
</g>
</svg>
